<svg width="644" height="716" viewBox="0 0 644 716" fill="none" xmlns="http://www.w3.org/2000/svg">
<path d="M56.499 689H0.301758V601.065H14.25V676.467H56.499V689ZM109.465 618.046H92.4841V601.065H109.465V618.046ZM122.267 689H80.0857V676.467H93.9666V638.8H80.0857V626.199H107.915V676.467H122.267V689ZM201.647 688.326C201.647 692.639 200.906 696.479 199.423 699.849C197.941 703.218 195.852 706.07 193.157 708.406C190.506 710.742 187.362 712.517 183.723 713.729C180.129 714.987 176.109 715.616 171.662 715.616C160.746 715.616 151.424 712.314 143.698 705.711L150.301 694.93C156.725 700.455 163.845 703.218 171.662 703.218C176.468 703.218 180.332 702.027 183.251 699.646C186.216 697.311 187.699 693.627 187.699 688.596V681.857C184.824 684.328 182.061 686.17 179.411 687.383C176.76 688.551 173.683 689.135 170.179 689.135C166.136 689.135 162.385 688.281 158.926 686.574C155.467 684.867 152.48 682.554 149.964 679.634C147.494 676.669 145.54 673.232 144.102 669.324C142.709 665.416 142.013 661.261 142.013 656.858C142.013 652.456 142.709 648.301 144.102 644.393C145.54 640.439 147.494 637.025 149.964 634.15C152.48 631.23 155.467 628.939 158.926 627.277C162.385 625.57 166.136 624.717 170.179 624.717C173.683 624.717 176.805 625.323 179.545 626.536C182.286 627.704 185.003 629.479 187.699 631.859V626.199H201.647V688.326ZM187.699 642.91C186.037 641.068 183.88 639.676 181.23 638.732C178.625 637.744 176.086 637.25 173.616 637.25C168.36 637.25 164.092 639.092 160.813 642.775C157.579 646.459 155.961 651.153 155.961 656.858C155.961 659.688 156.388 662.316 157.242 664.742C158.14 667.123 159.353 669.189 160.88 670.941C162.453 672.693 164.317 674.086 166.473 675.119C168.674 676.107 171.055 676.602 173.616 676.602C176.086 676.602 178.625 676.107 181.23 675.119C183.88 674.086 186.037 672.648 187.699 670.807V642.91ZM274.221 689H260.273V650.255C260.273 645.358 259.352 641.967 257.51 640.08C255.668 638.193 252.995 637.25 249.491 637.25C244.325 637.25 240.103 639.339 236.824 643.517C233.589 647.694 231.972 653.467 231.972 660.834V689H218.024V601.065H231.972V641.967C233.365 636.531 235.948 632.309 239.721 629.299C243.494 626.244 248.144 624.717 253.669 624.717C260.093 624.717 265.124 626.806 268.763 630.983C272.402 635.161 274.221 641.585 274.221 650.255V689ZM350.771 668.987C350.052 675.591 347.446 680.847 342.954 684.755C338.507 688.618 332.937 690.55 326.243 690.55C322.56 690.55 319.19 689.943 316.136 688.73C313.081 687.518 310.476 685.833 308.319 683.677C306.163 681.521 304.479 678.938 303.266 675.928C302.098 672.873 301.514 669.549 301.514 665.955V638.8H287.296V626.199H301.514V601.065H315.462V626.199H341.809V638.8H315.462V665.955C315.462 669.998 316.45 673.008 318.427 674.984C320.403 676.961 323.009 677.949 326.243 677.949C330.196 677.949 333.139 676.804 335.07 674.513C337.002 672.222 338.147 669.459 338.507 666.225L350.771 668.987ZM424.018 662.114C422.94 666.427 421.503 670.335 419.706 673.839C417.909 677.343 415.708 680.33 413.102 682.801C410.542 685.271 407.532 687.181 404.073 688.528C400.659 689.876 396.728 690.55 392.281 690.55C386.127 690.55 380.916 689.292 376.648 686.776C372.381 684.216 368.877 680.824 366.137 676.602C363.441 672.334 361.487 667.482 360.274 662.047C359.106 656.566 358.522 650.884 358.522 644.999C358.522 639.114 359.106 633.432 360.274 627.951C361.487 622.471 363.419 617.642 366.069 613.464C368.764 609.286 372.179 605.939 376.311 603.424C380.444 600.863 385.498 599.583 391.472 599.583C393.404 599.583 395.358 599.83 397.335 600.324C399.311 600.818 401.153 601.582 402.86 602.615C404.567 603.604 406.05 604.839 407.307 606.321C408.61 607.804 409.531 609.511 410.07 611.442V601.065H422.671V634.353H410.07C410.07 631.612 409.733 628.917 409.059 626.267C408.386 623.571 407.307 621.19 405.825 619.124C404.343 617.058 402.478 615.373 400.232 614.07C397.986 612.768 395.336 612.116 392.281 612.116C388.328 612.116 385.094 613.082 382.578 615.014C380.062 616.945 378.041 619.483 376.513 622.628C374.986 625.772 373.908 629.299 373.279 633.207C372.695 637.115 372.403 641.046 372.403 644.999C372.403 648.952 372.695 652.905 373.279 656.858C373.908 660.812 374.964 664.36 376.446 667.505C377.929 670.604 379.95 673.12 382.511 675.052C385.071 676.983 388.328 677.949 392.281 677.949C397.986 677.949 402.366 676.13 405.421 672.491C408.52 668.853 410.991 663.956 412.833 657.802L424.018 662.114ZM430.22 644.999C430.22 639.114 430.849 633.432 432.107 627.951C433.365 622.471 435.319 617.642 437.969 613.464C440.62 609.286 444.079 605.939 448.346 603.424C452.659 600.863 457.847 599.583 463.912 599.583C469.976 599.583 475.142 600.863 479.41 603.424C483.722 605.939 487.226 609.286 489.921 613.464C492.617 617.642 494.571 622.471 495.784 627.951C496.997 633.432 497.603 639.114 497.603 644.999C497.603 650.884 496.997 656.566 495.784 662.047C494.571 667.482 492.639 672.334 489.989 676.602C487.338 680.824 483.857 684.216 479.544 686.776C475.277 689.292 470.066 690.55 463.912 690.55C457.757 690.55 452.524 689.292 448.211 686.776C443.944 684.216 440.462 680.824 437.767 676.602C435.117 672.334 433.208 667.482 432.04 662.047C430.827 656.566 430.22 650.884 430.22 644.999ZM444.169 644.999C444.169 649.132 444.438 653.13 444.977 656.993L479.477 622.358C477.95 619.304 475.928 616.833 473.413 614.946C470.942 613.06 467.775 612.116 463.912 612.116C457.488 612.116 452.591 615.014 449.222 620.809C445.853 626.604 444.169 634.667 444.169 644.999ZM463.912 677.949C467.865 677.949 471.099 676.983 473.615 675.052C476.175 673.12 478.174 670.604 479.612 667.505C481.094 664.36 482.128 660.812 482.711 656.858C483.34 652.905 483.655 648.952 483.655 644.999C483.655 641.226 483.385 637.542 482.846 633.948L448.616 668.313C450.143 671.233 452.097 673.569 454.478 675.321C456.904 677.073 460.048 677.949 463.912 677.949ZM564.517 689H550.569V683.205C547.873 685.586 545.156 687.405 542.415 688.663C539.675 689.921 536.553 690.55 533.049 690.55C529.006 690.55 525.255 689.741 521.796 688.124C518.337 686.507 515.35 684.261 512.834 681.386C510.364 678.466 508.409 674.984 506.972 670.941C505.579 666.898 504.883 662.474 504.883 657.667C504.883 652.905 505.579 648.503 506.972 644.46C508.409 640.372 510.364 636.891 512.834 634.016C515.35 631.096 518.337 628.827 521.796 627.21C525.255 625.548 529.006 624.717 533.049 624.717C536.553 624.717 539.675 625.323 542.415 626.536C545.156 627.704 547.873 629.479 550.569 631.859V613.666H538.44V601.065H564.517V689ZM550.569 642.91C548.907 641.068 546.75 639.676 544.1 638.732C541.494 637.744 539.001 637.25 536.62 637.25C531.365 637.25 527.075 639.137 523.75 642.91C520.471 646.684 518.831 651.603 518.831 657.667C518.831 663.731 520.471 668.628 523.75 672.356C527.075 676.085 531.365 677.949 536.62 677.949C539.001 677.949 541.494 677.478 544.1 676.534C546.75 675.546 548.907 674.131 550.569 672.289V642.91ZM590.395 662.923C591.068 667.235 593.112 670.829 596.526 673.704C599.985 676.534 604.612 677.949 610.407 677.949C614.944 677.949 618.875 677.253 622.199 675.86C625.568 674.423 628.466 672.536 630.892 670.2L638.034 680.038C633.991 684.081 629.701 686.844 625.164 688.326C620.672 689.809 615.753 690.55 610.407 690.55C605.556 690.55 601.041 689.741 596.863 688.124C592.686 686.507 589.069 684.261 586.015 681.386C582.96 678.466 580.557 675.007 578.805 671.009C577.098 667.011 576.244 662.563 576.244 657.667C576.244 652.905 577.03 648.525 578.603 644.527C580.22 640.484 582.466 637.003 585.341 634.083C588.261 631.118 591.742 628.827 595.785 627.21C599.828 625.548 604.298 624.717 609.194 624.717C614.271 624.717 618.875 625.593 623.008 627.345C627.141 629.052 630.667 631.545 633.587 634.824C636.552 638.104 638.865 642.124 640.527 646.886C642.19 651.603 643.021 656.948 643.021 662.923H590.395ZM627.253 650.659C626.534 646.616 624.445 643.382 620.986 640.956C617.527 638.485 613.597 637.25 609.194 637.25C604.792 637.25 600.839 638.485 597.335 640.956C593.831 643.382 591.72 646.616 591.001 650.659H627.253Z" fill="white"/>
<rect x="267.375" y="57.9828" width="82" height="82" transform="rotate(-45 267.375 57.9828)" fill="#94B7DB"/>
<rect x="339.5" y="130.108" width="82" height="82" transform="rotate(-45 339.5 130.108)" fill="#94B7DB" fill-opacity="0.85"/>
<rect x="411.625" y="202.233" width="82" height="82" transform="rotate(-45 411.625 202.233)" fill="#94B7DB" fill-opacity="0.75"/>
<rect x="483.75" y="274.357" width="82" height="82" transform="rotate(-45 483.75 274.357)" fill="#94B7DB" fill-opacity="0.7"/>
<rect x="195.25" y="130.108" width="82" height="82" transform="rotate(-45 195.25 130.108)" fill="#94B7DB" fill-opacity="0.85"/>
<rect x="267.375" y="202.233" width="82" height="82" transform="rotate(-45 267.375 202.233)" fill="#94B7DB" fill-opacity="0.8"/>
<rect x="339.5" y="274.357" width="82" height="82" transform="rotate(-45 339.5 274.357)" fill="#94B7DB" fill-opacity="0.65"/>
<rect x="411.625" y="346.482" width="82" height="82" transform="rotate(-45 411.625 346.482)" fill="#94B7DB" fill-opacity="0.6"/>
<rect x="123.125" y="202.233" width="82" height="82" transform="rotate(-45 123.125 202.233)" fill="#94B7DB" fill-opacity="0.75"/>
<rect x="195.25" y="274.357" width="82" height="82" transform="rotate(-45 195.25 274.357)" fill="#94B7DB" fill-opacity="0.65"/>
<rect x="267.375" y="346.482" width="82" height="82" transform="rotate(-45 267.375 346.482)" fill="#94B7DB" fill-opacity="0.55"/>
<rect x="339.5" y="418.607" width="82" height="82" transform="rotate(-45 339.5 418.607)" fill="#94B7DB" fill-opacity="0.5"/>
<rect x="51" y="274.357" width="82" height="82" transform="rotate(-45 51 274.357)" fill="#94B7DB" fill-opacity="0.7"/>
<rect x="123.125" y="346.482" width="82" height="82" transform="rotate(-45 123.125 346.482)" fill="#94B7DB" fill-opacity="0.6"/>
<rect x="195.25" y="418.607" width="82" height="82" transform="rotate(-45 195.25 418.607)" fill="#94B7DB" fill-opacity="0.5"/>
<rect x="267.375" y="490.732" width="82" height="82" transform="rotate(-45 267.375 490.732)" fill="#94B7DB" fill-opacity="0.3"/>
</svg>
