<svg width="831" height="247" viewBox="0 0 831 247" fill="none" xmlns="http://www.w3.org/2000/svg">
<path d="M333.445 161H285.799V86.4468H297.625V150.374H333.445V161ZM378.35 100.843H363.954V86.4468H378.35V100.843ZM389.205 161H353.442V150.374H365.211V118.439H353.442V107.756H377.036V150.374H389.205V161ZM456.505 160.429C456.505 164.085 455.877 167.341 454.62 170.198C453.363 173.054 451.592 175.473 449.307 177.453C447.06 179.434 444.394 180.938 441.309 181.966C438.262 183.033 434.853 183.566 431.083 183.566C421.828 183.566 413.925 180.767 407.374 175.168L412.973 166.027C418.419 170.712 424.456 173.054 431.083 173.054C435.158 173.054 438.433 172.045 440.909 170.026C443.423 168.046 444.679 164.923 444.679 160.657V154.944C442.242 157.039 439.9 158.601 437.653 159.629C435.405 160.619 432.797 161.114 429.826 161.114C426.398 161.114 423.218 160.391 420.285 158.943C417.353 157.496 414.82 155.535 412.687 153.059C410.592 150.545 408.936 147.632 407.717 144.318C406.536 141.005 405.946 137.482 405.946 133.75C405.946 130.017 406.536 126.494 407.717 123.181C408.936 119.829 410.592 116.935 412.687 114.497C414.82 112.021 417.353 110.079 420.285 108.67C423.218 107.223 426.398 106.499 429.826 106.499C432.797 106.499 435.444 107.013 437.767 108.042C440.09 109.032 442.394 110.536 444.679 112.555V107.756H456.505V160.429ZM444.679 121.924C443.27 120.362 441.442 119.182 439.195 118.382C436.986 117.544 434.834 117.125 432.739 117.125C428.283 117.125 424.665 118.687 421.885 121.81C419.143 124.933 417.772 128.913 417.772 133.75C417.772 136.149 418.133 138.377 418.857 140.434C419.619 142.452 420.647 144.204 421.942 145.689C423.275 147.175 424.856 148.355 426.684 149.231C428.55 150.069 430.569 150.488 432.739 150.488C434.834 150.488 436.986 150.069 439.195 149.231C441.442 148.355 443.27 147.137 444.679 145.575V121.924ZM518.035 161H506.209V128.151C506.209 124 505.429 121.124 503.867 119.524C502.306 117.925 500.04 117.125 497.069 117.125C492.689 117.125 489.109 118.896 486.329 122.438C483.586 125.98 482.215 130.874 482.215 137.12V161H470.39V86.4468H482.215V121.124C483.396 116.516 485.586 112.936 488.785 110.384C491.984 107.794 495.926 106.499 500.611 106.499C506.057 106.499 510.323 108.27 513.408 111.812C516.493 115.354 518.035 120.8 518.035 128.151V161ZM582.936 144.033C582.327 149.631 580.118 154.087 576.309 157.401C572.538 160.676 567.816 162.314 562.141 162.314C559.018 162.314 556.161 161.8 553.572 160.771C550.982 159.743 548.773 158.315 546.945 156.487C545.117 154.659 543.688 152.469 542.66 149.917C541.67 147.327 541.175 144.509 541.175 141.462V118.439H529.12V107.756H541.175V86.4468H553V107.756H575.338V118.439H553V141.462C553 144.89 553.838 147.441 555.514 149.117C557.19 150.793 559.399 151.631 562.141 151.631C565.493 151.631 567.987 150.66 569.625 148.717C571.263 146.775 572.234 144.433 572.538 141.69L582.936 144.033ZM645.037 138.206C644.123 141.862 642.904 145.175 641.381 148.146C639.858 151.117 637.991 153.649 635.782 155.744C633.612 157.839 631.06 159.458 628.127 160.6C625.233 161.743 621.9 162.314 618.13 162.314C612.912 162.314 608.494 161.248 604.876 159.115C601.258 156.944 598.287 154.068 595.964 150.488C593.678 146.87 592.022 142.757 590.993 138.148C590.003 133.502 589.508 128.684 589.508 123.695C589.508 118.706 590.003 113.888 590.993 109.241C592.022 104.595 593.659 100.5 595.906 96.9585C598.192 93.4165 601.086 90.5791 604.59 88.4463C608.094 86.2754 612.379 85.1899 617.444 85.1899C619.082 85.1899 620.738 85.3994 622.414 85.8184C624.09 86.2373 625.652 86.8848 627.099 87.7607C628.546 88.5986 629.803 89.646 630.869 90.9028C631.974 92.1597 632.755 93.6069 633.212 95.2446V86.4468H643.895V114.668H633.212C633.212 112.345 632.926 110.06 632.355 107.813C631.783 105.528 630.869 103.509 629.612 101.757C628.356 100.005 626.775 98.5771 624.871 97.4727C622.966 96.3682 620.719 95.8159 618.13 95.8159C614.778 95.8159 612.036 96.6348 609.903 98.2725C607.77 99.9102 606.056 102.062 604.761 104.728C603.466 107.394 602.552 110.384 602.019 113.697C601.524 117.011 601.277 120.343 601.277 123.695C601.277 127.046 601.524 130.398 602.019 133.75C602.552 137.101 603.447 140.11 604.704 142.776C605.961 145.404 607.675 147.537 609.846 149.174C612.017 150.812 614.778 151.631 618.13 151.631C622.966 151.631 626.68 150.088 629.27 147.003C631.898 143.918 633.992 139.767 635.554 134.549L645.037 138.206ZM650.295 123.695C650.295 118.706 650.829 113.888 651.895 109.241C652.961 104.595 654.618 100.5 656.865 96.9585C659.112 93.4165 662.045 90.5791 665.663 88.4463C669.319 86.2754 673.718 85.1899 678.86 85.1899C684.001 85.1899 688.381 86.2754 692 88.4463C695.656 90.5791 698.626 93.4165 700.912 96.9585C703.197 100.5 704.854 104.595 705.882 109.241C706.91 113.888 707.424 118.706 707.424 123.695C707.424 128.684 706.91 133.502 705.882 138.148C704.854 142.757 703.216 146.87 700.969 150.488C698.722 154.068 695.77 156.944 692.114 159.115C688.496 161.248 684.078 162.314 678.86 162.314C673.642 162.314 669.205 161.248 665.549 159.115C661.931 156.944 658.979 154.068 656.694 150.488C654.447 146.87 652.828 142.757 651.838 138.148C650.81 133.502 650.295 128.684 650.295 123.695ZM662.121 123.695C662.121 127.199 662.35 130.588 662.807 133.864L692.057 104.5C690.762 101.91 689.048 99.8149 686.915 98.2153C684.82 96.6157 682.135 95.8159 678.86 95.8159C673.414 95.8159 669.262 98.2725 666.406 103.186C663.549 108.099 662.121 114.935 662.121 123.695ZM678.86 151.631C682.211 151.631 684.954 150.812 687.086 149.174C689.257 147.537 690.952 145.404 692.171 142.776C693.428 140.11 694.304 137.101 694.799 133.75C695.332 130.398 695.599 127.046 695.599 123.695C695.599 120.496 695.37 117.373 694.913 114.326L665.892 143.461C667.187 145.937 668.843 147.917 670.862 149.403C672.918 150.888 675.585 151.631 678.86 151.631ZM764.156 161H752.33V156.087C750.045 158.105 747.741 159.648 745.417 160.714C743.094 161.781 740.447 162.314 737.476 162.314C734.049 162.314 730.869 161.628 727.936 160.257C725.003 158.886 722.471 156.982 720.338 154.544C718.243 152.069 716.586 149.117 715.368 145.689C714.187 142.262 713.597 138.51 713.597 134.435C713.597 130.398 714.187 126.666 715.368 123.238C716.586 119.772 718.243 116.82 720.338 114.383C722.471 111.907 725.003 109.984 727.936 108.613C730.869 107.204 734.049 106.499 737.476 106.499C740.447 106.499 743.094 107.013 745.417 108.042C747.741 109.032 750.045 110.536 752.33 112.555V97.1299H742.047V86.4468H764.156V161ZM752.33 121.924C750.921 120.362 749.093 119.182 746.846 118.382C744.637 117.544 742.523 117.125 740.504 117.125C736.048 117.125 732.411 118.725 729.593 121.924C726.812 125.123 725.422 129.293 725.422 134.435C725.422 139.577 726.812 143.728 729.593 146.889C732.411 150.05 736.048 151.631 740.504 151.631C742.523 151.631 744.637 151.231 746.846 150.431C749.093 149.593 750.921 148.394 752.33 146.832V121.924ZM786.095 138.891C786.667 142.547 788.4 145.594 791.294 148.032C794.227 150.431 798.15 151.631 803.063 151.631C806.909 151.631 810.242 151.041 813.06 149.86C815.917 148.641 818.373 147.042 820.43 145.061L826.486 153.402C823.058 156.83 819.421 159.172 815.574 160.429C811.765 161.686 807.595 162.314 803.063 162.314C798.949 162.314 795.122 161.628 791.58 160.257C788.038 158.886 784.972 156.982 782.382 154.544C779.792 152.069 777.755 149.136 776.269 145.747C774.822 142.357 774.098 138.586 774.098 134.435C774.098 130.398 774.765 126.685 776.098 123.295C777.469 119.867 779.373 116.916 781.811 114.44C784.286 111.926 787.238 109.984 790.666 108.613C794.093 107.204 797.883 106.499 802.034 106.499C806.338 106.499 810.242 107.242 813.746 108.727C817.25 110.174 820.239 112.288 822.715 115.068C825.229 117.849 827.19 121.257 828.599 125.294C830.009 129.293 830.713 133.826 830.713 138.891H786.095ZM817.345 128.494C816.736 125.066 814.965 122.324 812.032 120.267C809.099 118.172 805.767 117.125 802.034 117.125C798.302 117.125 794.95 118.172 791.98 120.267C789.009 122.324 787.219 125.066 786.61 128.494H817.345Z" fill="white"/>
<rect x="97.3994" y="26.1006" width="36.9117" height="36.9117" transform="rotate(-45 97.3994 26.1006)" fill="#94B7DB"/>
<rect x="129.866" y="58.567" width="36.9117" height="36.9117" transform="rotate(-45 129.866 58.567)" fill="#94B7DB" fill-opacity="0.85"/>
<rect x="162.333" y="91.0334" width="36.9117" height="36.9117" transform="rotate(-45 162.333 91.0334)" fill="#94B7DB" fill-opacity="0.75"/>
<rect x="194.799" y="123.5" width="36.9117" height="36.9117" transform="rotate(-45 194.799 123.5)" fill="#94B7DB" fill-opacity="0.7"/>
<rect x="64.9331" y="58.5669" width="36.9117" height="36.9117" transform="rotate(-45 64.9331 58.5669)" fill="#94B7DB" fill-opacity="0.85"/>
<rect x="97.3994" y="91.0334" width="36.9117" height="36.9117" transform="rotate(-45 97.3994 91.0334)" fill="#94B7DB" fill-opacity="0.8"/>
<rect x="129.866" y="123.5" width="36.9117" height="36.9117" transform="rotate(-45 129.866 123.5)" fill="#94B7DB" fill-opacity="0.65"/>
<rect x="162.333" y="155.967" width="36.9117" height="36.9117" transform="rotate(-45 162.333 155.967)" fill="#94B7DB" fill-opacity="0.6"/>
<rect x="32.4666" y="91.0334" width="36.9117" height="36.9117" transform="rotate(-45 32.4666 91.0334)" fill="#94B7DB" fill-opacity="0.75"/>
<rect x="64.9331" y="123.5" width="36.9117" height="36.9117" transform="rotate(-45 64.9331 123.5)" fill="#94B7DB" fill-opacity="0.65"/>
<rect x="97.3994" y="155.967" width="36.9117" height="36.9117" transform="rotate(-45 97.3994 155.967)" fill="#94B7DB" fill-opacity="0.55"/>
<rect x="129.866" y="188.433" width="36.9117" height="36.9117" transform="rotate(-45 129.866 188.433)" fill="#94B7DB" fill-opacity="0.5"/>
<rect y="123.5" width="36.9117" height="36.9117" transform="rotate(-45 0 123.5)" fill="#94B7DB" fill-opacity="0.7"/>
<rect x="32.4666" y="155.967" width="36.9117" height="36.9117" transform="rotate(-45 32.4666 155.967)" fill="#94B7DB" fill-opacity="0.6"/>
<rect x="64.9331" y="188.433" width="36.9117" height="36.9117" transform="rotate(-45 64.9331 188.433)" fill="#94B7DB" fill-opacity="0.5"/>
<rect x="97.3994" y="220.9" width="36.9117" height="36.9117" transform="rotate(-45 97.3994 220.9)" fill="#94B7DB" fill-opacity="0.3"/>
</svg>
